<svg width="24" height="24" viewBox="0 0 24 24" fill="none" xmlns="http://www.w3.org/2000/svg">
<path d="M15.0027 19C15.0027 20.6569 13.6595 22 12.0027 22C10.3458 22 9.00265 20.6569 9.00265 19M13.7992 6.23856C14.2346 5.78864 14.5027 5.17562 14.5027 4.5C14.5027 3.11929 13.3834 2 12.0027 2C10.6219 2 9.50265 3.11929 9.50265 4.5C9.50265 5.17562 9.77065 5.78864 10.2061 6.23856M18.0027 11.2C18.0027 9.82087 17.3705 8.49823 16.2453 7.52304C15.1201 6.54786 13.5939 6 12.0027 6C10.4114 6 8.88523 6.54786 7.76001 7.52304C6.63479 8.49823 6.00265 9.82087 6.00265 11.2C6.00265 13.4818 5.43678 15.1506 4.73071 16.3447C3.92599 17.7056 3.52363 18.3861 3.53952 18.5486C3.55769 18.7346 3.59117 18.7933 3.74199 18.9036C3.87382 19 4.53616 19 5.86084 19H18.1445C19.4691 19 20.1315 19 20.2633 18.9036C20.4141 18.7933 20.4476 18.7346 20.4658 18.5486C20.4817 18.3861 20.0793 17.7056 19.2746 16.3447C18.5685 15.1506 18.0027 13.4818 18.0027 11.2Z" stroke="#475467" stroke-width="2" stroke-linecap="round" stroke-linejoin="round"/>
</svg>
