<svg width="20" height="20" viewBox="0 0 20 20" fill="none" xmlns="http://www.w3.org/2000/svg">
<path d="M16.6693 15.8337V13.3337H5.83594C4.45523 13.3337 3.33594 14.4529 3.33594 15.8337M7.33594 18.3337H14.0026C14.936 18.3337 15.4027 18.3337 15.7593 18.152C16.0729 17.9922 16.3278 17.7372 16.4876 17.4236C16.6693 17.0671 16.6693 16.6004 16.6693 15.667V4.33366C16.6693 3.40024 16.6693 2.93353 16.4876 2.57701C16.3278 2.2634 16.0729 2.00844 15.7593 1.84865C15.4027 1.66699 14.936 1.66699 14.0026 1.66699H7.33594C5.93581 1.66699 5.23574 1.66699 4.70096 1.93948C4.23056 2.17916 3.8481 2.56161 3.60842 3.03202C3.33594 3.5668 3.33594 4.26686 3.33594 5.66699V14.3337C3.33594 15.7338 3.33594 16.4339 3.60842 16.9686C3.8481 17.439 4.23056 17.8215 4.70096 18.0612C5.23574 18.3337 5.93581 18.3337 7.33594 18.3337Z" stroke="#667085" stroke-width="1.5" stroke-linecap="round" stroke-linejoin="round"/>
</svg>
