<svg width="32" height="32" viewBox="0 0 32 32" fill="none" xmlns="http://www.w3.org/2000/svg">
<path d="M0 12.8C0 8.31958 0 6.07937 0.871948 4.36808C1.63893 2.86278 2.86278 1.63893 4.36808 0.871948C6.07937 0 8.31958 0 12.8 0H19.2C23.6804 0 25.9206 0 27.6319 0.871948C29.1372 1.63893 30.3611 2.86278 31.1281 4.36808C32 6.07937 32 8.31958 32 12.8V19.2C32 23.6804 32 25.9206 31.1281 27.6319C30.3611 29.1372 29.1372 30.3611 27.6319 31.1281C25.9206 32 23.6804 32 19.2 32H12.8C8.31958 32 6.07937 32 4.36808 31.1281C2.86278 30.3611 1.63893 29.1372 0.871948 27.6319C0 25.9206 0 23.6804 0 19.2V12.8Z" fill="url(#paint0_linear_12824_8782)"/>
<path d="M26.0068 7.48711L25.0131 6.49336C24.9756 6.45586 24.9287 6.43945 24.8795 6.43945C24.8302 6.43945 24.7834 6.4582 24.7459 6.49336L22.9623 8.27695C22.1869 7.75161 21.2715 7.47152 20.3349 7.47305C19.1349 7.47305 17.9349 7.93008 17.0185 8.84648L14.6302 11.2348C14.5954 11.27 14.5758 11.3176 14.5758 11.3672C14.5758 11.4168 14.5954 11.4644 14.6302 11.4996L20.9982 17.8676C21.0357 17.9051 21.0826 17.9215 21.1318 17.9215C21.1787 17.9215 21.2279 17.9027 21.2654 17.8676L23.6537 15.4793C25.2685 13.8621 25.4584 11.3613 24.2232 9.53789L26.0068 7.7543C26.0795 7.6793 26.0795 7.55977 26.0068 7.48711ZM22.524 14.352L21.1318 15.7441L16.7537 11.366L18.1459 9.97383C18.7295 9.39023 19.5076 9.0668 20.3349 9.0668C21.1623 9.0668 21.9381 9.38789 22.524 9.97383C23.1076 10.5574 23.431 11.3355 23.431 12.1629C23.431 12.9902 23.1076 13.766 22.524 14.352ZM18.0662 16.8129C18.0309 16.778 17.9834 16.7584 17.9338 16.7584C17.8842 16.7584 17.8366 16.778 17.8013 16.8129L16.2404 18.3738L14.124 16.2574L15.6873 14.6941C15.7599 14.6215 15.7599 14.502 15.6873 14.4293L14.8342 13.5762C14.7989 13.5413 14.7513 13.5217 14.7017 13.5217C14.6521 13.5217 14.6046 13.5413 14.5693 13.5762L13.006 15.1395L11.9982 14.1316C11.9807 14.1141 11.9599 14.1003 11.9369 14.0911C11.914 14.0818 11.8894 14.0773 11.8646 14.0777C11.8177 14.0777 11.7685 14.0965 11.731 14.1316L9.34509 16.5199C7.73025 18.1371 7.54041 20.6379 8.77556 22.4613L6.99197 24.2449C6.95707 24.2802 6.9375 24.3278 6.9375 24.3773C6.9375 24.4269 6.95707 24.4745 6.99197 24.5098L7.98572 25.5035C8.02322 25.541 8.07009 25.5574 8.11931 25.5574C8.16853 25.5574 8.21541 25.5387 8.25291 25.5035L10.0365 23.7199C10.8263 24.2566 11.7451 24.5238 12.6638 24.5238C13.8638 24.5238 15.0638 24.0668 15.9803 23.1504L18.3685 20.7621C18.4412 20.6895 18.4412 20.5699 18.3685 20.4973L17.3607 19.4895L18.924 17.9262C18.9967 17.8535 18.9967 17.734 18.924 17.6613L18.0662 16.8129ZM14.8506 22.0254C14.5637 22.3137 14.2226 22.5423 13.8468 22.698C13.4711 22.8537 13.0682 22.9334 12.6615 22.9324C11.8342 22.9324 11.0584 22.6113 10.4724 22.0254C10.1841 21.7385 9.9555 21.3974 9.79982 21.0216C9.64413 20.6459 9.56446 20.243 9.56541 19.8363C9.56541 19.009 9.8865 18.2332 10.4724 17.6473L11.8646 16.2551L16.2428 20.6332L14.8506 22.0254Z" fill="white"/>
<defs>
<linearGradient id="paint0_linear_12824_8782" x1="0" y1="0" x2="32" y2="-3.3357e-09" gradientUnits="userSpaceOnUse">
<stop stop-color="#7F56D9"/>
<stop offset="1" stop-color="#9E77ED"/>
</linearGradient>
</defs>
</svg>
