<svg width="20" height="20" viewBox="0 0 20 20" fill="none" xmlns="http://www.w3.org/2000/svg">
<path d="M18.3307 8.33366H1.66406M18.3307 9.16699V6.83366C18.3307 5.90024 18.3307 5.43353 18.1491 5.07701C17.9893 4.76341 17.7343 4.50844 17.4207 4.34865C17.0642 4.16699 16.5975 4.16699 15.6641 4.16699H4.33073C3.39731 4.16699 2.9306 4.16699 2.57408 4.34865C2.26048 4.50844 2.00551 4.7634 1.84572 5.07701C1.66406 5.43353 1.66406 5.90024 1.66406 6.83366V13.167C1.66406 14.1004 1.66406 14.5671 1.84572 14.9236C2.00551 15.2372 2.26047 15.4922 2.57408 15.652C2.9306 15.8337 3.39731 15.8337 4.33073 15.8337H9.58073M14.9974 17.5003C14.9974 17.5003 17.4974 16.3087 17.4974 14.5213V12.4361L15.6744 11.7847C15.2364 11.6278 14.7574 11.6278 14.3194 11.7847L12.4974 12.4361V14.5213C12.4974 16.3087 14.9974 17.5003 14.9974 17.5003Z" stroke="#667085" stroke-width="1.5" stroke-linecap="round" stroke-linejoin="round"/>
</svg>
