<svg width="13" height="13" viewBox="0 0 13 13" fill="none" xmlns="http://www.w3.org/2000/svg">
<path d="M6.76505 7.04467C7.03441 7.04467 7.25277 6.82632 7.25277 6.55696C7.25277 6.28761 7.03441 6.06925 6.76505 6.06925C6.4957 6.06925 6.27734 6.28761 6.27734 6.55696C6.27734 6.82632 6.4957 7.04467 6.76505 7.04467Z" stroke="#98A2B3" stroke-width="0.975421" stroke-linecap="round" stroke-linejoin="round"/>
<path d="M6.76505 3.6307C7.03441 3.6307 7.25277 3.41234 7.25277 3.14298C7.25277 2.87363 7.03441 2.65527 6.76505 2.65527C6.4957 2.65527 6.27734 2.87363 6.27734 3.14298C6.27734 3.41234 6.4957 3.6307 6.76505 3.6307Z" stroke="#98A2B3" stroke-width="0.975421" stroke-linecap="round" stroke-linejoin="round"/>
<path d="M6.76505 10.4586C7.03441 10.4586 7.25277 10.2403 7.25277 9.97094C7.25277 9.70158 7.03441 9.48323 6.76505 9.48323C6.4957 9.48323 6.27734 9.70158 6.27734 9.97094C6.27734 10.2403 6.4957 10.4586 6.76505 10.4586Z" stroke="#98A2B3" stroke-width="0.975421" stroke-linecap="round" stroke-linejoin="round"/>
</svg>
