<svg width="17" height="16" viewBox="0 0 17 16" fill="none" xmlns="http://www.w3.org/2000/svg">
<path d="M8.59179 8.36516C8.94667 8.36516 9.23436 8.07748 9.23436 7.72259C9.23436 7.36771 8.94667 7.08002 8.59179 7.08002C8.23691 7.08002 7.94922 7.36771 7.94922 7.72259C7.94922 8.07748 8.23691 8.36516 8.59179 8.36516Z" stroke="#98A2B3" stroke-width="1.28514" stroke-linecap="round" stroke-linejoin="round"/>
<path d="M8.59179 3.86717C8.94667 3.86717 9.23436 3.57948 9.23436 3.2246C9.23436 2.86972 8.94667 2.58203 8.59179 2.58203C8.23691 2.58203 7.94922 2.86972 7.94922 3.2246C7.94922 3.57948 8.23691 3.86717 8.59179 3.86717Z" stroke="#98A2B3" stroke-width="1.28514" stroke-linecap="round" stroke-linejoin="round"/>
<path d="M8.59179 12.8632C8.94667 12.8632 9.23436 12.5755 9.23436 12.2206C9.23436 11.8657 8.94667 11.578 8.59179 11.578C8.23691 11.578 7.94922 11.8657 7.94922 12.2206C7.94922 12.5755 8.23691 12.8632 8.59179 12.8632Z" stroke="#98A2B3" stroke-width="1.28514" stroke-linecap="round" stroke-linejoin="round"/>
</svg>
