<svg width="16" height="16" viewBox="0 0 16 16" fill="none" xmlns="http://www.w3.org/2000/svg">
<path d="M12.0052 6.66622L9.33856 3.99955M1.67188 14.3329L3.92812 14.0822C4.20378 14.0516 4.34161 14.0362 4.47044 13.9945C4.58474 13.9575 4.69351 13.9053 4.7938 13.8391C4.90684 13.7646 5.00491 13.6665 5.20103 13.4704L14.0052 4.66622C14.7416 3.92984 14.7416 2.73593 14.0052 1.99955C13.2688 1.26317 12.0749 1.26317 11.3386 1.99955L2.53436 10.8037C2.33824 10.9999 2.24018 11.0979 2.16563 11.211C2.0995 11.3113 2.04722 11.42 2.01022 11.5343C1.96851 11.6632 1.9532 11.801 1.92257 12.0766L1.67188 14.3329Z" stroke="white" stroke-width="1.33333" stroke-linecap="round" stroke-linejoin="round"/>
</svg>
