<svg width="24" height="24" viewBox="0 0 24 24" fill="none" xmlns="http://www.w3.org/2000/svg">
<g clip-path="url(#clip0_10821_44299)">
<path d="M12.0018 0.296948C9.15128 0.295599 6.39337 1.30902 4.22193 3.15572C2.0505 5.00243 0.607356 7.56181 0.150942 10.3756C-0.305472 13.1893 0.254648 16.0736 1.731 18.512C3.20735 20.9504 5.50351 22.7837 8.2083 23.6834C8.8083 23.7944 9.0288 23.4224 9.0288 23.1059C9.0288 22.8194 9.0168 21.8744 9.0123 20.8724C5.6733 21.5984 4.9698 19.4564 4.9698 19.4564C4.4238 18.0689 3.6378 17.6999 3.6378 17.6999C2.5488 16.9544 3.7203 16.9709 3.7203 16.9709C4.9248 17.0549 5.5593 18.2069 5.5593 18.2069C6.6303 20.0414 8.3673 19.5104 9.0513 19.2044C9.1593 18.4289 9.4698 17.8994 9.8133 17.5994C7.1478 17.2964 4.3458 16.2674 4.3458 11.6684C4.3458 10.3589 4.8153 9.28795 5.5818 8.44795C5.4573 8.14495 5.0463 6.92545 5.6973 5.27245C5.6973 5.27245 6.7053 4.94995 8.9988 6.50245C9.97764 6.23618 10.9874 6.10051 12.0018 6.09895C13.0218 6.10345 14.0493 6.23695 15.0078 6.50245C17.2983 4.94995 18.3048 5.27245 18.3048 5.27245C18.9573 6.92545 18.5478 8.14645 18.4233 8.44795C19.1928 9.28795 19.6578 10.3589 19.6578 11.6684C19.6578 16.2779 16.8498 17.2919 14.1783 17.5889C14.6088 17.9609 14.9928 18.6914 14.9928 19.8104C14.9928 21.4154 14.9793 22.7084 14.9793 23.1029C14.9793 23.4224 15.1953 23.7959 15.8043 23.6789C18.5086 22.7782 20.8039 20.9442 22.2793 18.5053C23.7547 16.0665 24.3138 13.1822 23.8565 10.3687C23.3992 7.55528 21.9554 4.99648 19.7835 3.15049C17.6117 1.30451 14.8537 0.291887 12.0033 0.293948L12.0018 0.296948Z" fill="#0D121C"/>
</g>
<defs>
<clipPath id="clip0_10821_44299">
<rect width="24" height="24" fill="white"/>
</clipPath>
</defs>
</svg>
