<svg width="25" height="24" viewBox="0 0 25 24" fill="none" xmlns="http://www.w3.org/2000/svg">
<g clip-path="url(#clip0_10821_44166)">
<path d="M12.6659 0.296948C9.81534 0.295599 7.05743 1.30902 4.88599 3.15572C2.71456 5.00243 1.27142 7.56181 0.815005 10.3756C0.35859 13.1893 0.918711 16.0736 2.39506 18.512C3.87142 20.9504 6.16758 22.7837 8.87236 23.6834C9.47236 23.7944 9.69286 23.4224 9.69286 23.1059C9.69286 22.8194 9.68086 21.8744 9.67636 20.8724C6.33736 21.5984 5.63386 19.4564 5.63386 19.4564C5.08786 18.0689 4.30186 17.6999 4.30186 17.6999C3.21286 16.9544 4.38436 16.9709 4.38436 16.9709C5.58886 17.0549 6.22336 18.2069 6.22336 18.2069C7.29436 20.0414 9.03136 19.5104 9.71536 19.2044C9.82336 18.4289 10.1339 17.8994 10.4774 17.5994C7.81186 17.2964 5.00986 16.2674 5.00986 11.6684C5.00986 10.3589 5.47936 9.28795 6.24586 8.44795C6.12136 8.14495 5.71036 6.92545 6.36136 5.27245C6.36136 5.27245 7.36936 4.94995 9.66286 6.50245C10.6417 6.23618 11.6515 6.10051 12.6659 6.09895C13.6859 6.10345 14.7134 6.23695 15.6719 6.50245C17.9624 4.94995 18.9689 5.27245 18.9689 5.27245C19.6214 6.92545 19.2119 8.14645 19.0874 8.44795C19.8569 9.28795 20.3219 10.3589 20.3219 11.6684C20.3219 16.2779 17.5139 17.2919 14.8424 17.5889C15.2729 17.9609 15.6569 18.6914 15.6569 19.8104C15.6569 21.4154 15.6434 22.7084 15.6434 23.1029C15.6434 23.4224 15.8594 23.7959 16.4684 23.6789C19.1726 22.7782 21.468 20.9442 22.9434 18.5053C24.4188 16.0665 24.9779 13.1822 24.5206 10.3687C24.0633 7.55528 22.6195 4.99648 20.4476 3.15049C18.2758 1.30451 15.5177 0.291887 12.6674 0.293948L12.6659 0.296948Z" fill="#0D121C"/>
</g>
<defs>
<clipPath id="clip0_10821_44166">
<rect width="24" height="24" fill="white" transform="translate(0.664062)"/>
</clipPath>
</defs>
</svg>
