<svg width="16" height="17" viewBox="0 0 16 17" fill="none" xmlns="http://www.w3.org/2000/svg">
<path d="M10.8273 3.67171C12.3894 5.23381 12.3894 7.76647 10.8273 9.32857M5.17042 9.32857C3.60832 7.76647 3.60832 5.23381 5.17042 3.67171M3.23772 11.1668C0.681252 8.55975 0.696897 4.37389 3.28465 1.78613M12.713 1.78613C15.3008 4.37389 15.3164 8.55975 12.76 11.1668M7.99885 11.1668V6.50016M3.33218 15.1668H12.6655C13.2868 15.1668 13.5974 15.1668 13.8424 15.0653C14.1691 14.93 14.4287 14.6704 14.564 14.3437C14.6655 14.0987 14.6655 13.7881 14.6655 13.1668C14.6655 12.5456 14.6655 12.2349 14.564 11.9899C14.4287 11.6632 14.1691 11.4036 13.8424 11.2683C13.5974 11.1668 13.2868 11.1668 12.6655 11.1668H3.33218C2.71092 11.1668 2.4003 11.1668 2.15527 11.2683C1.82856 11.4036 1.569 11.6632 1.43367 11.9899C1.33218 12.2349 1.33218 12.5456 1.33218 13.1668C1.33218 13.7881 1.33218 14.0987 1.43367 14.3437C1.569 14.6704 1.82856 14.93 2.15527 15.0653C2.4003 15.1668 2.71092 15.1668 3.33218 15.1668Z" stroke="#667085" stroke-width="1.33333" stroke-linecap="round" stroke-linejoin="round"/>
</svg>
