<svg width="16" height="17" viewBox="0 0 16 17" fill="none" xmlns="http://www.w3.org/2000/svg">
<path d="M14.139 11.0937C13.7148 12.0967 13.0515 12.9805 12.2069 13.6679C11.3623 14.3553 10.3621 14.8253 9.29393 15.0369C8.2257 15.2485 7.12192 15.1951 6.07906 14.8816C5.03621 14.568 4.08605 14.0038 3.31165 13.2381C2.53724 12.4725 1.96218 11.5289 1.63672 10.4897C1.31127 9.45047 1.24534 8.34736 1.4447 7.27679C1.64406 6.20623 2.10263 5.20079 2.78033 4.34839C3.45803 3.49599 4.33422 2.82258 5.3323 2.38704M14.1582 5.94915C14.425 6.59346 14.5888 7.27462 14.6443 7.9676C14.658 8.1388 14.6649 8.2244 14.6309 8.30151C14.6025 8.36592 14.5462 8.42687 14.4843 8.46032C14.4102 8.50037 14.3175 8.50037 14.1323 8.50037H8.5323C8.34562 8.50037 8.25227 8.50037 8.18097 8.46404C8.11825 8.43208 8.06726 8.38109 8.0353 8.31837C7.99897 8.24707 7.99897 8.15372 7.99897 7.96704V2.36704C7.99897 2.18179 7.99897 2.08917 8.03902 2.01503C8.07247 1.95309 8.13342 1.89683 8.19783 1.86843C8.27494 1.83444 8.36054 1.8413 8.53174 1.85503C9.22472 1.91059 9.90588 2.07429 10.5502 2.34118C11.359 2.67621 12.094 3.16727 12.713 3.78633C13.3321 4.40538 13.8231 5.14031 14.1582 5.94915Z" stroke="#667085" stroke-width="1.33333" stroke-linecap="round" stroke-linejoin="round"/>
</svg>
