<svg width="24" height="24" viewBox="0 0 24 24" fill="none" xmlns="http://www.w3.org/2000/svg">
<path d="M20.8418 17.1447C20.5091 17.9133 20.1153 18.6208 19.659 19.2713C19.0371 20.158 18.5278 20.7719 18.1354 21.1127C17.527 21.6722 16.8752 21.9587 16.1772 21.975C15.6761 21.975 15.0718 21.8324 14.3683 21.5432C13.6626 21.2553 13.014 21.1127 12.421 21.1127C11.799 21.1127 11.132 21.2553 10.4185 21.5432C9.70396 21.8324 9.12831 21.9832 8.68819 21.9981C8.01884 22.0266 7.35166 21.7319 6.68571 21.1127C6.26066 20.742 5.72901 20.1064 5.09212 19.2061C4.40878 18.2446 3.84698 17.1297 3.40686 15.8587C2.93551 14.4857 2.69922 13.1563 2.69922 11.8692C2.69922 10.3948 3.0178 9.12321 3.65592 8.0576C4.15742 7.20166 4.82459 6.52647 5.65962 6.03081C6.49464 5.53514 7.39688 5.28256 8.36852 5.2664C8.90017 5.2664 9.59736 5.43085 10.4637 5.75405C11.3277 6.07834 11.8824 6.24279 12.1256 6.24279C12.3075 6.24279 12.9237 6.0505 13.9684 5.66714C14.9564 5.31162 15.7902 5.16441 16.4732 5.2224C18.3241 5.37178 19.7147 6.10142 20.6395 7.41595C18.9841 8.41896 18.1653 9.82379 18.1816 11.626C18.1965 13.0297 18.7057 14.1979 19.7066 15.1254C20.1601 15.5558 20.6667 15.8885 21.2302 16.1248C21.108 16.4793 20.979 16.8188 20.8418 17.1447V17.1447ZM16.5968 0.440125C16.5968 1.54038 16.1948 2.56768 15.3936 3.51854C14.4267 4.64892 13.2572 5.30211 11.989 5.19904C11.9729 5.06705 11.9635 4.92812 11.9635 4.78214C11.9635 3.7259 12.4233 2.59552 13.2399 1.67127C13.6475 1.20331 14.166 0.814209 14.7948 0.503814C15.4221 0.19805 16.0156 0.0289566 16.5737 0C16.59 0.147086 16.5968 0.294182 16.5968 0.440111V0.440125Z" fill="black"/>
</svg>
