<svg width="25" height="24" viewBox="0 0 25 24" fill="none" xmlns="http://www.w3.org/2000/svg">
<g clip-path="url(#clip0_12830_9822)">
<path d="M24.0963 12.2763C24.0963 11.4605 24.0302 10.6404 23.8891 9.83789H12.5703V14.4589H19.052C18.7831 15.9492 17.9188 17.2676 16.6534 18.1054V21.1037H20.5204C22.7912 19.0137 24.0963 15.9272 24.0963 12.2763Z" fill="#4285F4"/>
<path d="M12.5712 24.0013C15.8076 24.0013 18.537 22.9387 20.5256 21.1044L16.6586 18.106C15.5827 18.838 14.1938 19.2525 12.5756 19.2525C9.44494 19.2525 6.79052 17.1404 5.8381 14.3008H1.84766V17.3917C3.88477 21.4439 8.03395 24.0013 12.5712 24.0013Z" fill="#34A853"/>
<path d="M5.83285 14.3007C5.33019 12.8103 5.33019 11.1965 5.83285 9.70618V6.61523H1.84681C0.144812 10.006 0.144812 14.0009 1.84681 17.3916L5.83285 14.3007Z" fill="#FBBC04"/>
<path d="M12.5712 4.74966C14.282 4.7232 15.9355 5.36697 17.1745 6.54867L20.6005 3.12262C18.4312 1.0855 15.5519 -0.034466 12.5712 0.000808666C8.03395 0.000808666 3.88477 2.55822 1.84766 6.61481L5.83369 9.70575C6.7817 6.86173 9.44053 4.74966 12.5712 4.74966Z" fill="#EA4335"/>
</g>
<defs>
<clipPath id="clip0_12830_9822">
<rect width="24" height="24" fill="white" transform="translate(0.332031)"/>
</clipPath>
</defs>
</svg>
