<svg width="16" height="17" viewBox="0 0 16 17" fill="none" xmlns="http://www.w3.org/2000/svg">
<path d="M7.52047 2.80107C7.67412 2.48978 7.75095 2.33413 7.85525 2.2844C7.946 2.24114 8.05142 2.24114 8.14217 2.2844C8.24647 2.33413 8.3233 2.48978 8.47695 2.80107L9.93474 5.75438C9.9801 5.84628 10.0028 5.89223 10.0359 5.92791C10.0653 5.9595 10.1005 5.98509 10.1396 6.00328C10.1837 6.02381 10.2344 6.03122 10.3358 6.04604L13.5967 6.52266C13.9401 6.57285 14.1118 6.59795 14.1912 6.68182C14.2604 6.75479 14.2929 6.85506 14.2797 6.95471C14.2646 7.06925 14.1403 7.19031 13.8917 7.43245L11.533 9.72981C11.4595 9.80142 11.4227 9.83723 11.399 9.87984C11.378 9.91756 11.3645 9.959 11.3593 10.0019C11.3534 10.0503 11.3621 10.1009 11.3795 10.202L11.936 13.4469C11.9947 13.7892 12.0241 13.9603 11.9689 14.0619C11.9209 14.1502 11.8356 14.2122 11.7367 14.2305C11.6231 14.2516 11.4694 14.1708 11.1621 14.0091L8.24695 12.4761C8.15612 12.4283 8.11071 12.4044 8.06286 12.395C8.0205 12.3867 7.97692 12.3867 7.93456 12.395C7.88671 12.4044 7.8413 12.4283 7.75047 12.4761L4.83531 14.0091C4.52797 14.1708 4.37431 14.2516 4.26068 14.2305C4.16182 14.2122 4.07651 14.1502 4.02852 14.0619C3.97336 13.9603 4.00271 13.7892 4.06141 13.4469L4.61796 10.202C4.63531 10.1009 4.64398 10.0503 4.63811 10.0019C4.63291 9.959 4.61944 9.91756 4.59844 9.87984C4.57471 9.83723 4.53795 9.80142 4.46442 9.72981L2.10574 7.43245C1.85714 7.19031 1.73284 7.06925 1.71772 6.95471C1.70456 6.85506 1.73707 6.75479 1.8062 6.68182C1.88565 6.59795 2.05735 6.57285 2.40073 6.52266L5.66157 6.04604C5.76298 6.03122 5.81368 6.02381 5.85784 6.00328C5.89694 5.98509 5.93214 5.9595 5.96149 5.92791C5.99464 5.89223 6.01732 5.84628 6.06268 5.75438L7.52047 2.80107Z" stroke="#667085" stroke-width="1.33333" stroke-linecap="round" stroke-linejoin="round"/>
</svg>
