<svg width="20" height="20" viewBox="0 0 20 20" fill="none" xmlns="http://www.w3.org/2000/svg">
<path d="M16.6693 17.5C16.6693 16.337 16.6693 15.7555 16.5257 15.2824C16.2026 14.217 15.3689 13.3834 14.3036 13.0602C13.8304 12.9167 13.2489 12.9167 12.0859 12.9167H7.91927C6.7563 12.9167 6.17482 12.9167 5.70165 13.0602C4.63632 13.3834 3.80264 14.217 3.47947 15.2824C3.33594 15.7555 3.33594 16.337 3.33594 17.5M13.7526 6.25C13.7526 8.32107 12.0737 10 10.0026 10C7.93154 10 6.2526 8.32107 6.2526 6.25C6.2526 4.17893 7.93154 2.5 10.0026 2.5C12.0737 2.5 13.7526 4.17893 13.7526 6.25Z" stroke="#667085" stroke-width="1.5" stroke-linecap="round" stroke-linejoin="round"/>
</svg>
